solid inlet
   facet normal 1.000000e+00 0.000000e+00 0.000000e+00
      outer loop
         vertex 1.930000e+00 0.000000e+00 2.500000e+00
         vertex 1.930000e+00 -3.000000e-01 2.500000e+00
         vertex 1.930000e+00 0.000000e+00 0.000000e+00
      endloop
   endfacet
   facet normal 1.000000e+00 0.000000e+00 0.000000e+00
      outer loop
         vertex 1.930000e+00 0.000000e+00 0.000000e+00
         vertex 1.930000e+00 -3.000000e-01 2.500000e+00
         vertex 1.930000e+00 -3.000000e-01 0.000000e+00
      endloop
   endfacet
   facet normal -0.000000e+00 1.000000e+00 0.000000e+00
      outer loop
         vertex 1.450000e+00 0.000000e+00 2.500000e+00
         vertex 1.930000e+00 0.000000e+00 2.500000e+00
         vertex 1.450000e+00 0.000000e+00 0.000000e+00
      endloop
   endfacet
   facet normal 0.000000e+00 1.000000e+00 0.000000e+00
      outer loop
         vertex 1.450000e+00 0.000000e+00 0.000000e+00
         vertex 1.930000e+00 0.000000e+00 2.500000e+00
         vertex 1.930000e+00 0.000000e+00 0.000000e+00
      endloop
   endfacet
   facet normal -1.000000e+00 0.000000e+00 0.000000e+00
      outer loop
         vertex 1.450000e+00 -3.000000e-01 2.500000e+00
         vertex 1.450000e+00 -1.972152e-31 2.500000e+00
         vertex 1.450000e+00 -3.000000e-01 0.000000e+00
      endloop
   endfacet
   facet normal -1.000000e+00 0.000000e+00 0.000000e+00
      outer loop
         vertex 1.450000e+00 -3.000000e-01 0.000000e+00
         vertex 1.450000e+00 -1.972152e-31 2.500000e+00
         vertex 1.450000e+00 -1.972152e-31 0.000000e+00
      endloop
   endfacet
   facet normal -0.000000e+00 -1.000000e+00 -0.000000e+00
      outer loop
         vertex 1.930000e+00 -3.000000e-01 2.500000e+00
         vertex 1.450000e+00 -3.000000e-01 2.500000e+00
         vertex 1.930000e+00 -3.000000e-01 0.000000e+00
      endloop
   endfacet
   facet normal 0.000000e+00 -1.000000e+00 0.000000e+00
      outer loop
         vertex 1.930000e+00 -3.000000e-01 0.000000e+00
         vertex 1.450000e+00 -3.000000e-01 2.500000e+00
         vertex 1.450000e+00 -3.000000e-01 0.000000e+00
      endloop
   endfacet
   facet normal -0.000000e+00 0.000000e+00 1.000000e+00
      outer loop
         vertex 1.450000e+00 0.000000e+00 2.500000e+00
         vertex 1.450000e+00 -3.000000e-01 2.500000e+00
         vertex 1.930000e+00 0.000000e+00 2.500000e+00
      endloop
   endfacet
   facet normal 0.000000e+00 0.000000e+00 1.000000e+00
      outer loop
         vertex 1.930000e+00 0.000000e+00 2.500000e+00
         vertex 1.450000e+00 -3.000000e-01 2.500000e+00
         vertex 1.930000e+00 -3.000000e-01 2.500000e+00
      endloop
   endfacet
   facet normal 0.000000e+00 0.000000e+00 -1.000000e+00
      outer loop
         vertex 1.450000e+00 -3.000000e-01 0.000000e+00
         vertex 1.450000e+00 0.000000e+00 0.000000e+00
         vertex 1.930000e+00 -3.000000e-01 0.000000e+00
      endloop
   endfacet
   facet normal 0.000000e+00 0.000000e+00 -1.000000e+00
      outer loop
         vertex 1.930000e+00 -3.000000e-01 0.000000e+00
         vertex 1.450000e+00 0.000000e+00 0.000000e+00
         vertex 1.930000e+00 0.000000e+00 0.000000e+00
      endloop
   endfacet
endsolid