solid inner
   facet normal 0.000000e+00 -1.000000e+00 0.000000e+00
      outer loop
         vertex 1.200000e+00 0.000000e+00 0.000000e+00
         vertex 1.450000e+00 0.000000e+00 0.000000e+00
         vertex 1.200000e+00 0.000000e+00 4.000000e-01
      endloop
   endfacet
   facet normal 0.000000e+00 -1.000000e+00 0.000000e+00
      outer loop
         vertex 1.200000e+00 0.000000e+00 4.000000e-01
         vertex 1.450000e+00 0.000000e+00 0.000000e+00
         vertex 1.450000e+00 0.000000e+00 2.500000e+00
      endloop
   endfacet
   facet normal 0.000000e+00 -1.000000e+00 0.000000e+00
      outer loop
         vertex 1.200000e+00 0.000000e+00 4.000000e-01
         vertex 1.450000e+00 0.000000e+00 2.500000e+00
         vertex 1.000000e+00 0.000000e+00 4.000000e-01
      endloop
   endfacet
   facet normal 0.000000e+00 -1.000000e+00 0.000000e+00
      outer loop
         vertex 1.000000e+00 0.000000e+00 4.000000e-01
         vertex 1.450000e+00 0.000000e+00 2.500000e+00
         vertex 0.000000e+00 0.000000e+00 2.500000e+00
      endloop
   endfacet
   facet normal -0.000000e+00 -1.000000e+00 -0.000000e+00
      outer loop
         vertex 1.000000e+00 0.000000e+00 4.000000e-01
         vertex 0.000000e+00 0.000000e+00 2.500000e+00
         vertex 1.000000e+00 0.000000e+00 0.000000e+00
      endloop
   endfacet
   facet normal 0.000000e+00 -1.000000e+00 0.000000e+00
      outer loop
         vertex 1.000000e+00 0.000000e+00 0.000000e+00
         vertex 0.000000e+00 0.000000e+00 2.500000e+00
         vertex 0.000000e+00 0.000000e+00 0.000000e+00
      endloop
   endfacet
   facet normal 0.000000e+00 1.000000e+00 -0.000000e+00
      outer loop
         vertex 4.480000e+00 1.500000e+00 0.000000e+00
         vertex 3.480000e+00 1.500000e+00 0.000000e+00
         vertex 4.480000e+00 1.500000e+00 4.000000e-01
      endloop
   endfacet
   facet normal 0.000000e+00 1.000000e+00 0.000000e+00
      outer loop
         vertex 4.480000e+00 1.500000e+00 4.000000e-01
         vertex 3.480000e+00 1.500000e+00 0.000000e+00
         vertex 3.480000e+00 1.500000e+00 4.000000e-01
      endloop
   endfacet
   facet normal 1.000000e+00 -0.000000e+00 0.000000e+00
      outer loop
         vertex 3.480000e+00 1.500000e+00 4.000000e-01
         vertex 3.480000e+00 1.500000e+00 0.000000e+00
         vertex 3.480000e+00 1.700000e+00 4.000000e-01
      endloop
   endfacet
   facet normal 1.000000e+00 0.000000e+00 0.000000e+00
      outer loop
         vertex 3.480000e+00 1.700000e+00 4.000000e-01
         vertex 3.480000e+00 1.500000e+00 0.000000e+00
         vertex 3.480000e+00 1.700000e+00 0.000000e+00
      endloop
   endfacet
   facet normal 0.000000e+00 -1.000000e+00 0.000000e+00
      outer loop
         vertex 3.480000e+00 1.700000e+00 4.000000e-01
         vertex 3.480000e+00 1.700000e+00 0.000000e+00
         vertex 4.480000e+00 1.700000e+00 4.000000e-01
      endloop
   endfacet
   facet normal 0.000000e+00 -1.000000e+00 -0.000000e+00
      outer loop
         vertex 4.480000e+00 1.700000e+00 4.000000e-01
         vertex 3.480000e+00 1.700000e+00 0.000000e+00
         vertex 4.480000e+00 1.700000e+00 0.000000e+00
      endloop
   endfacet
   facet normal 0.000000e+00 -1.000000e+00 0.000000e+00
      outer loop
         vertex 0.000000e+00 6.580000e+00 0.000000e+00
         vertex 1.000000e+00 6.580000e+00 0.000000e+00
         vertex 0.000000e+00 6.580000e+00 4.000000e-01
      endloop
   endfacet
   facet normal 0.000000e+00 -1.000000e+00 0.000000e+00
      outer loop
         vertex 0.000000e+00 6.580000e+00 4.000000e-01
         vertex 1.000000e+00 6.580000e+00 0.000000e+00
         vertex 1.000000e+00 6.580000e+00 4.000000e-01
      endloop
   endfacet
   facet normal -1.000000e+00 -0.000000e+00 -0.000000e+00
      outer loop
         vertex 1.000000e+00 6.580000e+00 4.000000e-01
         vertex 1.000000e+00 6.580000e+00 0.000000e+00
         vertex 1.000000e+00 6.380000e+00 4.000000e-01
      endloop
   endfacet
   facet normal -1.000000e+00 0.000000e+00 0.000000e+00
      outer loop
         vertex 1.000000e+00 6.380000e+00 4.000000e-01
         vertex 1.000000e+00 6.580000e+00 0.000000e+00
         vertex 1.000000e+00 6.380000e+00 0.000000e+00
      endloop
   endfacet
   facet normal 0.000000e+00 1.000000e+00 0.000000e+00
      outer loop
         vertex 1.000000e+00 6.380000e+00 4.000000e-01
         vertex 1.000000e+00 6.380000e+00 0.000000e+00
         vertex 0.000000e+00 6.380000e+00 4.000000e-01
      endloop
   endfacet
   facet normal 0.000000e+00 1.000000e+00 0.000000e+00
      outer loop
         vertex 0.000000e+00 6.380000e+00 4.000000e-01
         vertex 1.000000e+00 6.380000e+00 0.000000e+00
         vertex 0.000000e+00 6.380000e+00 0.000000e+00
      endloop
   endfacet
   facet normal -1.000000e+00 -0.000000e+00 -0.000000e+00
      outer loop
         vertex 1.930000e+00 7.700000e-01 1.000000e-03
         vertex 1.930000e+00 7.700000e-01 0.000000e+00
         vertex 1.930000e+00 2.300000e-01 1.000000e-03
      endloop
   endfacet
   facet normal -1.000000e+00 0.000000e+00 0.000000e+00
      outer loop
         vertex 1.930000e+00 2.300000e-01 1.000000e-03
         vertex 1.930000e+00 7.700000e-01 0.000000e+00
         vertex 1.930000e+00 2.300000e-01 0.000000e+00
      endloop
   endfacet
   facet normal 0.000000e+00 1.000000e+00 0.000000e+00
      outer loop
         vertex 1.930000e+00 2.300000e-01 1.000000e-03
         vertex 1.930000e+00 2.300000e-01 0.000000e+00
         vertex 1.450000e+00 2.300000e-01 1.000000e-03
      endloop
   endfacet
   facet normal 0.000000e+00 1.000000e+00 0.000000e+00
      outer loop
         vertex 1.450000e+00 2.300000e-01 1.000000e-03
         vertex 1.930000e+00 2.300000e-01 0.000000e+00
         vertex 1.450000e+00 2.300000e-01 0.000000e+00
      endloop
   endfacet
   facet normal 1.000000e+00 0.000000e+00 0.000000e+00
      outer loop
         vertex 1.450000e+00 2.300000e-01 0.000000e+00
         vertex 1.450000e+00 7.700000e-01 0.000000e+00
         vertex 1.450000e+00 2.300000e-01 1.000000e-03
      endloop
   endfacet
   facet normal 1.000000e+00 -0.000000e+00 0.000000e+00
      outer loop
         vertex 1.450000e+00 2.300000e-01 1.000000e-03
         vertex 1.450000e+00 7.700000e-01 0.000000e+00
         vertex 1.450000e+00 7.700000e-01 1.000000e-03
      endloop
   endfacet
   facet normal 0.000000e+00 -1.000000e+00 0.000000e+00
      outer loop
         vertex 1.450000e+00 7.700000e-01 0.000000e+00
         vertex 1.930000e+00 7.700000e-01 0.000000e+00
         vertex 1.450000e+00 7.700000e-01 1.000000e-03
      endloop
   endfacet
   facet normal 0.000000e+00 -1.000000e+00 0.000000e+00
      outer loop
         vertex 1.450000e+00 7.700000e-01 1.000000e-03
         vertex 1.930000e+00 7.700000e-01 0.000000e+00
         vertex 1.930000e+00 7.700000e-01 1.000000e-03
      endloop
   endfacet
   facet normal -1.000000e+00 -0.000000e+00 -0.000000e+00
      outer loop
         vertex 3.480000e+00 8.080000e+00 4.000000e-01
         vertex 3.480000e+00 8.080000e+00 0.000000e+00
         vertex 3.480000e+00 7.080000e+00 4.000000e-01
      endloop
   endfacet
   facet normal -1.000000e+00 0.000000e+00 0.000000e+00
      outer loop
         vertex 3.480000e+00 7.080000e+00 4.000000e-01
         vertex 3.480000e+00 8.080000e+00 0.000000e+00
         vertex 3.480000e+00 7.080000e+00 0.000000e+00
      endloop
   endfacet
   facet normal 0.000000e+00 1.000000e+00 -0.000000e+00
      outer loop
         vertex 3.480000e+00 7.080000e+00 0.000000e+00
         vertex 3.280000e+00 7.080000e+00 0.000000e+00
         vertex 3.480000e+00 7.080000e+00 4.000000e-01
      endloop
   endfacet
   facet normal 0.000000e+00 1.000000e+00 0.000000e+00
      outer loop
         vertex 3.480000e+00 7.080000e+00 4.000000e-01
         vertex 3.280000e+00 7.080000e+00 0.000000e+00
         vertex 3.280000e+00 7.080000e+00 4.000000e-01
      endloop
   endfacet
   facet normal 1.000000e+00 0.000000e+00 0.000000e+00
      outer loop
         vertex 3.280000e+00 7.080000e+00 0.000000e+00
         vertex 3.280000e+00 8.080000e+00 0.000000e+00
         vertex 3.280000e+00 7.080000e+00 4.000000e-01
      endloop
   endfacet
   facet normal 1.000000e+00 -0.000000e+00 0.000000e+00
      outer loop
         vertex 3.280000e+00 7.080000e+00 4.000000e-01
         vertex 3.280000e+00 8.080000e+00 0.000000e+00
         vertex 3.280000e+00 8.080000e+00 4.000000e-01
      endloop
   endfacet
   facet normal 0.000000e+00 1.000000e+00 -0.000000e+00
      outer loop
         vertex 3.280000e+00 8.080000e+00 0.000000e+00
         vertex 0.000000e+00 8.080000e+00 0.000000e+00
         vertex 3.280000e+00 8.080000e+00 4.000000e-01
      endloop
   endfacet
   facet normal 0.000000e+00 1.000000e+00 0.000000e+00
      outer loop
         vertex 3.280000e+00 8.080000e+00 4.000000e-01
         vertex 0.000000e+00 8.080000e+00 0.000000e+00
         vertex 0.000000e+00 8.080000e+00 2.500000e+00
      endloop
   endfacet
   facet normal 0.000000e+00 1.000000e+00 -0.000000e+00
      outer loop
         vertex 3.280000e+00 8.080000e+00 4.000000e-01
         vertex 0.000000e+00 8.080000e+00 2.500000e+00
         vertex 3.480000e+00 8.080000e+00 4.000000e-01
      endloop
   endfacet
   facet normal 0.000000e+00 1.000000e+00 -0.000000e+00
      outer loop
         vertex 3.480000e+00 8.080000e+00 4.000000e-01
         vertex 0.000000e+00 8.080000e+00 2.500000e+00
         vertex 4.480000e+00 8.080000e+00 2.500000e+00
      endloop
   endfacet
   facet normal -0.000000e+00 1.000000e+00 0.000000e+00
      outer loop
         vertex 3.480000e+00 8.080000e+00 4.000000e-01
         vertex 4.480000e+00 8.080000e+00 2.500000e+00
         vertex 3.480000e+00 8.080000e+00 0.000000e+00
      endloop
   endfacet
   facet normal 0.000000e+00 1.000000e+00 0.000000e+00
      outer loop
         vertex 3.480000e+00 8.080000e+00 0.000000e+00
         vertex 4.480000e+00 8.080000e+00 2.500000e+00
         vertex 4.480000e+00 8.080000e+00 0.000000e+00
      endloop
   endfacet
   facet normal -1.000000e+00 0.000000e+00 0.000000e+00
      outer loop
         vertex 0.000000e+00 6.380000e+00 0.000000e+00
         vertex 0.000000e+00 0.000000e+00 0.000000e+00
         vertex 0.000000e+00 6.380000e+00 4.000000e-01
      endloop
   endfacet
   facet normal -1.000000e+00 -0.000000e+00 0.000000e+00
      outer loop
         vertex 0.000000e+00 6.380000e+00 4.000000e-01
         vertex 0.000000e+00 0.000000e+00 0.000000e+00
         vertex 0.000000e+00 0.000000e+00 2.500000e+00
      endloop
   endfacet
   facet normal -1.000000e+00 0.000000e+00 0.000000e+00
      outer loop
         vertex 0.000000e+00 6.380000e+00 4.000000e-01
         vertex 0.000000e+00 0.000000e+00 2.500000e+00
         vertex 0.000000e+00 6.580000e+00 4.000000e-01
      endloop
   endfacet
   facet normal -1.000000e+00 0.000000e+00 0.000000e+00
      outer loop
         vertex 0.000000e+00 6.580000e+00 4.000000e-01
         vertex 0.000000e+00 0.000000e+00 2.500000e+00
         vertex 0.000000e+00 8.080000e+00 2.500000e+00
      endloop
   endfacet
   facet normal -1.000000e+00 0.000000e+00 0.000000e+00
      outer loop
         vertex 0.000000e+00 6.580000e+00 4.000000e-01
         vertex 0.000000e+00 8.080000e+00 2.500000e+00
         vertex 0.000000e+00 6.580000e+00 0.000000e+00
      endloop
   endfacet
   facet normal -1.000000e+00 0.000000e+00 0.000000e+00
      outer loop
         vertex 0.000000e+00 6.580000e+00 0.000000e+00
         vertex 0.000000e+00 8.080000e+00 2.500000e+00
         vertex 0.000000e+00 8.080000e+00 0.000000e+00
      endloop
   endfacet
   facet normal 1.000000e+00 -0.000000e+00 0.000000e+00
      outer loop
         vertex 1.000000e+00 0.000000e+00 4.000000e-01
         vertex 1.000000e+00 0.000000e+00 0.000000e+00
         vertex 1.000000e+00 1.000000e+00 4.000000e-01
      endloop
   endfacet
   facet normal 1.000000e+00 0.000000e+00 0.000000e+00
      outer loop
         vertex 1.000000e+00 1.000000e+00 4.000000e-01
         vertex 1.000000e+00 0.000000e+00 0.000000e+00
         vertex 1.000000e+00 1.000000e+00 0.000000e+00
      endloop
   endfacet
   facet normal 0.000000e+00 -1.000000e+00 0.000000e+00
      outer loop
         vertex 1.000000e+00 1.000000e+00 4.000000e-01
         vertex 1.000000e+00 1.000000e+00 0.000000e+00
         vertex 1.200000e+00 1.000000e+00 4.000000e-01
      endloop
   endfacet
   facet normal 0.000000e+00 -1.000000e+00 -0.000000e+00
      outer loop
         vertex 1.200000e+00 1.000000e+00 4.000000e-01
         vertex 1.000000e+00 1.000000e+00 0.000000e+00
         vertex 1.200000e+00 1.000000e+00 0.000000e+00
      endloop
   endfacet
   facet normal -1.000000e+00 0.000000e+00 0.000000e+00
      outer loop
         vertex 1.200000e+00 1.000000e+00 0.000000e+00
         vertex 1.200000e+00 0.000000e+00 0.000000e+00
         vertex 1.200000e+00 1.000000e+00 4.000000e-01
      endloop
   endfacet
   facet normal -1.000000e+00 -0.000000e+00 0.000000e+00
      outer loop
         vertex 1.200000e+00 1.000000e+00 4.000000e-01
         vertex 1.200000e+00 0.000000e+00 0.000000e+00
         vertex 1.200000e+00 0.000000e+00 4.000000e-01
      endloop
   endfacet
   facet normal 0.000000e+00 -1.000000e+00 0.000000e+00
      outer loop
         vertex 1.930000e+00 0.000000e+00 0.000000e+00
         vertex 4.480000e+00 0.000000e+00 0.000000e+00
         vertex 1.930000e+00 0.000000e+00 2.500000e+00
      endloop
   endfacet
   facet normal 0.000000e+00 -1.000000e+00 0.000000e+00
      outer loop
         vertex 1.930000e+00 0.000000e+00 2.500000e+00
         vertex 4.480000e+00 0.000000e+00 0.000000e+00
         vertex 4.480000e+00 0.000000e+00 2.500000e+00
      endloop
   endfacet
   facet normal 1.000000e+00 0.000000e+00 0.000000e+00
      outer loop
         vertex 4.480000e+00 1.700000e+00 0.000000e+00
         vertex 4.480000e+00 8.080000e+00 0.000000e+00
         vertex 4.480000e+00 1.700000e+00 4.000000e-01
      endloop
   endfacet
   facet normal 1.000000e+00 -0.000000e+00 0.000000e+00
      outer loop
         vertex 4.480000e+00 1.700000e+00 4.000000e-01
         vertex 4.480000e+00 8.080000e+00 0.000000e+00
         vertex 4.480000e+00 8.080000e+00 2.500000e+00
      endloop
   endfacet
   facet normal 1.000000e+00 0.000000e+00 -0.000000e+00
      outer loop
         vertex 4.480000e+00 1.700000e+00 4.000000e-01
         vertex 4.480000e+00 8.080000e+00 2.500000e+00
         vertex 4.480000e+00 1.500000e+00 4.000000e-01
      endloop
   endfacet
   facet normal 1.000000e+00 0.000000e+00 -0.000000e+00
      outer loop
         vertex 4.480000e+00 1.500000e+00 4.000000e-01
         vertex 4.480000e+00 8.080000e+00 2.500000e+00
         vertex 4.480000e+00 0.000000e+00 2.500000e+00
      endloop
   endfacet
   facet normal 1.000000e+00 0.000000e+00 0.000000e+00
      outer loop
         vertex 4.480000e+00 1.500000e+00 4.000000e-01
         vertex 4.480000e+00 0.000000e+00 2.500000e+00
         vertex 4.480000e+00 1.500000e+00 0.000000e+00
      endloop
   endfacet
   facet normal 1.000000e+00 0.000000e+00 0.000000e+00
      outer loop
         vertex 4.480000e+00 1.500000e+00 0.000000e+00
         vertex 4.480000e+00 0.000000e+00 2.500000e+00
         vertex 4.480000e+00 0.000000e+00 0.000000e+00
      endloop
   endfacet
   facet normal -0.000000e+00 0.000000e+00 1.000000e+00
      outer loop
         vertex 0.000000e+00 8.080000e+00 2.500000e+00
         vertex 0.000000e+00 0.000000e+00 2.500000e+00
         vertex 4.480000e+00 8.080000e+00 2.500000e+00
      endloop
   endfacet
   facet normal 0.000000e+00 0.000000e+00 1.000000e+00
      outer loop
         vertex 4.480000e+00 8.080000e+00 2.500000e+00
         vertex 0.000000e+00 0.000000e+00 2.500000e+00
         vertex 1.450000e+00 0.000000e+00 2.500000e+00
      endloop
   endfacet
   facet normal 0.000000e+00 -0.000000e+00 1.000000e+00
      outer loop
         vertex 4.480000e+00 0.000000e+00 2.500000e+00
         vertex 4.480000e+00 8.080000e+00 2.500000e+00
         vertex 1.930000e+00 0.000000e+00 2.500000e+00
      endloop
   endfacet
   facet normal 0.000000e+00 -0.000000e+00 1.000000e+00
      outer loop
         vertex 1.930000e+00 0.000000e+00 2.500000e+00
         vertex 4.480000e+00 8.080000e+00 2.500000e+00
         vertex 1.450000e+00 0.000000e+00 2.500000e+00
      endloop
   endfacet
   facet normal 0.000000e+00 0.000000e+00 1.000000e+00
      outer loop
         vertex 1.930000e+00 0.000000e+00 2.500000e+00
         vertex 1.450000e+00 0.000000e+00 2.500000e+00
         vertex 1.930000e+00 -3.000000e-01 2.500000e+00
      endloop
   endfacet
   facet normal 0.000000e+00 0.000000e+00 1.000000e+00
      outer loop
         vertex 1.930000e+00 -3.000000e-01 2.500000e+00
         vertex 1.450000e+00 0.000000e+00 2.500000e+00
         vertex 1.450000e+00 -3.000000e-01 2.500000e+00
      endloop
   endfacet
   facet normal 0.000000e+00 0.000000e+00 -1.000000e+00
      outer loop
         vertex 3.480000e+00 1.500000e+00 0.000000e+00
         vertex 4.480000e+00 1.500000e+00 0.000000e+00
         vertex 4.480000e+00 0.000000e+00 0.000000e+00
      endloop
   endfacet
   facet normal 0.000000e+00 0.000000e+00 -1.000000e+00
      outer loop
         vertex 0.000000e+00 6.380000e+00 0.000000e+00
         vertex 1.000000e+00 6.380000e+00 0.000000e+00
         vertex 4.480000e+00 1.700000e+00 0.000000e+00
      endloop
   endfacet
   facet normal 0.000000e+00 0.000000e+00 -1.000000e+00
      outer loop
         vertex 3.480000e+00 8.080000e+00 0.000000e+00
         vertex 4.480000e+00 8.080000e+00 0.000000e+00
         vertex 3.480000e+00 7.080000e+00 0.000000e+00
      endloop
   endfacet
   facet normal 0.000000e+00 0.000000e+00 -1.000000e+00
      outer loop
         vertex 3.480000e+00 7.080000e+00 0.000000e+00
         vertex 4.480000e+00 8.080000e+00 0.000000e+00
         vertex 4.480000e+00 1.700000e+00 0.000000e+00
      endloop
   endfacet
   facet normal -0.000000e+00 -0.000000e+00 -1.000000e+00
      outer loop
         vertex 3.480000e+00 7.080000e+00 0.000000e+00
         vertex 4.480000e+00 1.700000e+00 0.000000e+00
         vertex 3.280000e+00 7.080000e+00 0.000000e+00
      endloop
   endfacet
   facet normal 0.000000e+00 -0.000000e+00 -1.000000e+00
      outer loop
         vertex 3.280000e+00 7.080000e+00 0.000000e+00
         vertex 4.480000e+00 1.700000e+00 0.000000e+00
         vertex 1.000000e+00 6.380000e+00 0.000000e+00
      endloop
   endfacet
   facet normal -0.000000e+00 0.000000e+00 -1.000000e+00
      outer loop
         vertex 3.280000e+00 7.080000e+00 0.000000e+00
         vertex 1.000000e+00 6.380000e+00 0.000000e+00
         vertex 3.280000e+00 8.080000e+00 0.000000e+00
      endloop
   endfacet
   facet normal 0.000000e+00 0.000000e+00 -1.000000e+00
      outer loop
         vertex 3.280000e+00 8.080000e+00 0.000000e+00
         vertex 1.000000e+00 6.380000e+00 0.000000e+00
         vertex 1.000000e+00 6.580000e+00 0.000000e+00
      endloop
   endfacet
   facet normal -0.000000e+00 0.000000e+00 -1.000000e+00
      outer loop
         vertex 3.280000e+00 8.080000e+00 0.000000e+00
         vertex 1.000000e+00 6.580000e+00 0.000000e+00
         vertex 0.000000e+00 8.080000e+00 0.000000e+00
      endloop
   endfacet
   facet normal 0.000000e+00 0.000000e+00 -1.000000e+00
      outer loop
         vertex 0.000000e+00 8.080000e+00 0.000000e+00
         vertex 1.000000e+00 6.580000e+00 0.000000e+00
         vertex 0.000000e+00 6.580000e+00 0.000000e+00
      endloop
   endfacet
   facet normal 0.000000e+00 0.000000e+00 -1.000000e+00
      outer loop
         vertex 1.000000e+00 0.000000e+00 0.000000e+00
         vertex 0.000000e+00 0.000000e+00 0.000000e+00
         vertex 1.000000e+00 1.000000e+00 0.000000e+00
      endloop
   endfacet
   facet normal -0.000000e+00 0.000000e+00 -1.000000e+00
      outer loop
         vertex 1.000000e+00 1.000000e+00 0.000000e+00
         vertex 0.000000e+00 0.000000e+00 0.000000e+00
         vertex 0.000000e+00 6.380000e+00 0.000000e+00
      endloop
   endfacet
   facet normal 0.000000e+00 0.000000e+00 -1.000000e+00
      outer loop
         vertex 1.000000e+00 1.000000e+00 0.000000e+00
         vertex 0.000000e+00 6.380000e+00 0.000000e+00
         vertex 1.200000e+00 1.000000e+00 0.000000e+00
      endloop
   endfacet
   facet normal 0.000000e+00 0.000000e+00 -1.000000e+00
      outer loop
         vertex 1.930000e+00 7.700000e-01 0.000000e+00
         vertex 3.480000e+00 1.700000e+00 0.000000e+00
         vertex 1.930000e+00 2.300000e-01 0.000000e+00
      endloop
   endfacet
   facet normal 0.000000e+00 0.000000e+00 -1.000000e+00
      outer loop
         vertex 1.930000e+00 2.300000e-01 0.000000e+00
         vertex 3.480000e+00 1.700000e+00 0.000000e+00
         vertex 3.480000e+00 1.500000e+00 0.000000e+00
      endloop
   endfacet
   facet normal 0.000000e+00 0.000000e+00 -1.000000e+00
      outer loop
         vertex 1.930000e+00 2.300000e-01 0.000000e+00
         vertex 3.480000e+00 1.500000e+00 0.000000e+00
         vertex 1.930000e+00 0.000000e+00 0.000000e+00
      endloop
   endfacet
   facet normal 0.000000e+00 0.000000e+00 -1.000000e+00
      outer loop
         vertex 1.930000e+00 0.000000e+00 0.000000e+00
         vertex 3.480000e+00 1.500000e+00 0.000000e+00
         vertex 4.480000e+00 0.000000e+00 0.000000e+00
      endloop
   endfacet
   facet normal 0.000000e+00 0.000000e+00 -1.000000e+00
      outer loop
         vertex 4.480000e+00 1.700000e+00 0.000000e+00
         vertex 3.480000e+00 1.700000e+00 0.000000e+00
         vertex 0.000000e+00 6.380000e+00 0.000000e+00
      endloop
   endfacet
   facet normal 0.000000e+00 0.000000e+00 -1.000000e+00
      outer loop
         vertex 0.000000e+00 6.380000e+00 0.000000e+00
         vertex 3.480000e+00 1.700000e+00 0.000000e+00
         vertex 1.930000e+00 7.700000e-01 0.000000e+00
      endloop
   endfacet
   facet normal 0.000000e+00 0.000000e+00 -1.000000e+00
      outer loop
         vertex 0.000000e+00 6.380000e+00 0.000000e+00
         vertex 1.930000e+00 7.700000e-01 0.000000e+00
         vertex 1.200000e+00 1.000000e+00 0.000000e+00
      endloop
   endfacet
   facet normal 0.000000e+00 0.000000e+00 -1.000000e+00
      outer loop
         vertex 1.200000e+00 1.000000e+00 0.000000e+00
         vertex 1.930000e+00 7.700000e-01 0.000000e+00
         vertex 1.450000e+00 7.700000e-01 0.000000e+00
      endloop
   endfacet
   facet normal 0.000000e+00 0.000000e+00 -1.000000e+00
      outer loop
         vertex 1.200000e+00 1.000000e+00 0.000000e+00
         vertex 1.450000e+00 7.700000e-01 0.000000e+00
         vertex 1.200000e+00 0.000000e+00 0.000000e+00
      endloop
   endfacet
   facet normal 0.000000e+00 0.000000e+00 -1.000000e+00
      outer loop
         vertex 1.200000e+00 0.000000e+00 0.000000e+00
         vertex 1.450000e+00 7.700000e-01 0.000000e+00
         vertex 1.450000e+00 2.300000e-01 0.000000e+00
      endloop
   endfacet
   facet normal 0.000000e+00 0.000000e+00 -1.000000e+00
      outer loop
         vertex 1.200000e+00 0.000000e+00 0.000000e+00
         vertex 1.450000e+00 2.300000e-01 0.000000e+00
         vertex 1.450000e+00 0.000000e+00 0.000000e+00
      endloop
   endfacet
   facet normal 0.000000e+00 0.000000e+00 -1.000000e+00
      outer loop
         vertex 1.450000e+00 0.000000e+00 0.000000e+00
         vertex 1.450000e+00 2.300000e-01 0.000000e+00
         vertex 1.930000e+00 2.300000e-01 0.000000e+00
      endloop
   endfacet
   facet normal 0.000000e+00 0.000000e+00 -1.000000e+00
      outer loop
         vertex 1.450000e+00 0.000000e+00 0.000000e+00
         vertex 1.930000e+00 2.300000e-01 0.000000e+00
         vertex 1.450000e+00 -3.000000e-01 0.000000e+00
      endloop
   endfacet
   facet normal 0.000000e+00 0.000000e+00 -1.000000e+00
      outer loop
         vertex 1.450000e+00 -3.000000e-01 0.000000e+00
         vertex 1.930000e+00 2.300000e-01 0.000000e+00
         vertex 1.930000e+00 0.000000e+00 0.000000e+00
      endloop
   endfacet
   facet normal 0.000000e+00 0.000000e+00 -1.000000e+00
      outer loop
         vertex 1.450000e+00 -3.000000e-01 0.000000e+00
         vertex 1.930000e+00 0.000000e+00 0.000000e+00
         vertex 1.930000e+00 -3.000000e-01 0.000000e+00
      endloop
   endfacet
   facet normal -0.000000e+00 -0.000000e+00 -1.000000e+00
      outer loop
         vertex 1.930000e+00 7.700000e-01 1.000000e-03
         vertex 1.930000e+00 2.300000e-01 1.000000e-03
         vertex 1.450000e+00 7.700000e-01 1.000000e-03
      endloop
   endfacet
   facet normal 0.000000e+00 0.000000e+00 -1.000000e+00
      outer loop
         vertex 1.450000e+00 7.700000e-01 1.000000e-03
         vertex 1.930000e+00 2.300000e-01 1.000000e-03
         vertex 1.450000e+00 2.300000e-01 1.000000e-03
      endloop
   endfacet
   facet normal -0.000000e+00 -0.000000e+00 -1.000000e+00
      outer loop
         vertex 3.480000e+00 8.080000e+00 4.000000e-01
         vertex 3.480000e+00 7.080000e+00 4.000000e-01
         vertex 3.280000e+00 8.080000e+00 4.000000e-01
      endloop
   endfacet
   facet normal 0.000000e+00 0.000000e+00 -1.000000e+00
      outer loop
         vertex 3.280000e+00 8.080000e+00 4.000000e-01
         vertex 3.480000e+00 7.080000e+00 4.000000e-01
         vertex 3.280000e+00 7.080000e+00 4.000000e-01
      endloop
   endfacet
   facet normal -0.000000e+00 -0.000000e+00 -1.000000e+00
      outer loop
         vertex 1.000000e+00 6.580000e+00 4.000000e-01
         vertex 1.000000e+00 6.380000e+00 4.000000e-01
         vertex 0.000000e+00 6.580000e+00 4.000000e-01
      endloop
   endfacet
   facet normal 0.000000e+00 0.000000e+00 -1.000000e+00
      outer loop
         vertex 0.000000e+00 6.580000e+00 4.000000e-01
         vertex 1.000000e+00 6.380000e+00 4.000000e-01
         vertex 0.000000e+00 6.380000e+00 4.000000e-01
      endloop
   endfacet
   facet normal -0.000000e+00 -0.000000e+00 -1.000000e+00
      outer loop
         vertex 1.200000e+00 1.000000e+00 4.000000e-01
         vertex 1.200000e+00 0.000000e+00 4.000000e-01
         vertex 1.000000e+00 1.000000e+00 4.000000e-01
      endloop
   endfacet
   facet normal 0.000000e+00 0.000000e+00 -1.000000e+00
      outer loop
         vertex 1.000000e+00 1.000000e+00 4.000000e-01
         vertex 1.200000e+00 0.000000e+00 4.000000e-01
         vertex 1.000000e+00 0.000000e+00 4.000000e-01
      endloop
   endfacet
   facet normal -0.000000e+00 -0.000000e+00 -1.000000e+00
      outer loop
         vertex 4.480000e+00 1.700000e+00 4.000000e-01
         vertex 4.480000e+00 1.500000e+00 4.000000e-01
         vertex 3.480000e+00 1.700000e+00 4.000000e-01
      endloop
   endfacet
   facet normal 0.000000e+00 0.000000e+00 -1.000000e+00
      outer loop
         vertex 3.480000e+00 1.700000e+00 4.000000e-01
         vertex 4.480000e+00 1.500000e+00 4.000000e-01
         vertex 3.480000e+00 1.500000e+00 4.000000e-01
      endloop
   endfacet
   facet normal 1.000000e+00 0.000000e+00 0.000000e+00
      outer loop
         vertex 1.930000e+00 0.000000e+00 2.500000e+00
         vertex 1.930000e+00 -3.000000e-01 2.500000e+00
         vertex 1.930000e+00 0.000000e+00 0.000000e+00
      endloop
   endfacet
   facet normal 1.000000e+00 0.000000e+00 0.000000e+00
      outer loop
         vertex 1.930000e+00 0.000000e+00 0.000000e+00
         vertex 1.930000e+00 -3.000000e-01 2.500000e+00
         vertex 1.930000e+00 -3.000000e-01 0.000000e+00
      endloop
   endfacet
   facet normal -1.000000e+00 0.000000e+00 0.000000e+00
      outer loop
         vertex 1.450000e+00 -3.000000e-01 2.500000e+00
         vertex 1.450000e+00 -1.972152e-31 2.500000e+00
         vertex 1.450000e+00 -3.000000e-01 0.000000e+00
      endloop
   endfacet
   facet normal -1.000000e+00 0.000000e+00 0.000000e+00
      outer loop
         vertex 1.450000e+00 -3.000000e-01 0.000000e+00
         vertex 1.450000e+00 -1.972152e-31 2.500000e+00
         vertex 1.450000e+00 -1.972152e-31 0.000000e+00
      endloop
   endfacet
   facet normal -0.000000e+00 -1.000000e+00 -0.000000e+00
      outer loop
         vertex 1.930000e+00 -3.000000e-01 2.500000e+00
         vertex 1.450000e+00 -3.000000e-01 2.500000e+00
         vertex 1.930000e+00 -3.000000e-01 0.000000e+00
      endloop
   endfacet
   facet normal 0.000000e+00 -1.000000e+00 0.000000e+00
      outer loop
         vertex 1.930000e+00 -3.000000e-01 0.000000e+00
         vertex 1.450000e+00 -3.000000e-01 2.500000e+00
         vertex 1.450000e+00 -3.000000e-01 0.000000e+00
      endloop
   endfacet
endsolid