solid outlet
   facet normal -0.000000e+00 1.000000e+00 0.000000e+00
      outer loop
         vertex -3.000000e-01 8.380000e+00 2.500000e+00
         vertex 4.780000e+00 8.380000e+00 2.500000e+00
         vertex -3.000000e-01 8.380000e+00 2.000000e-01
      endloop
   endfacet
   facet normal 0.000000e+00 1.000000e+00 0.000000e+00
      outer loop
         vertex -3.000000e-01 8.380000e+00 2.000000e-01
         vertex 4.780000e+00 8.380000e+00 2.500000e+00
         vertex 4.780000e+00 8.380000e+00 2.000000e-01
      endloop
   endfacet
   facet normal -1.000000e+00 0.000000e+00 0.000000e+00
      outer loop
         vertex -3.000000e-01 -3.000000e-01 2.500000e+00
         vertex -3.000000e-01 8.380000e+00 2.500000e+00
         vertex -3.000000e-01 -3.000000e-01 2.000000e-01
      endloop
   endfacet
   facet normal -1.000000e+00 0.000000e+00 0.000000e+00
      outer loop
         vertex -3.000000e-01 -3.000000e-01 2.000000e-01
         vertex -3.000000e-01 8.380000e+00 2.500000e+00
         vertex -3.000000e-01 8.380000e+00 2.000000e-01
      endloop
   endfacet
   facet normal -0.000000e+00 -1.000000e+00 -0.000000e+00
      outer loop
         vertex 1.450000e+00 -3.000000e-01 2.500000e+00
         vertex -3.000000e-01 -3.000000e-01 2.500000e+00
         vertex 1.450000e+00 -3.000000e-01 2.000000e-01
      endloop
   endfacet
   facet normal 0.000000e+00 -1.000000e+00 0.000000e+00
      outer loop
         vertex 1.450000e+00 -3.000000e-01 2.000000e-01
         vertex -3.000000e-01 -3.000000e-01 2.500000e+00
         vertex -3.000000e-01 -3.000000e-01 2.000000e-01
      endloop
   endfacet
   facet normal 1.000000e+00 0.000000e+00 0.000000e+00
      outer loop
         vertex 1.450000e+00 2.205815e-24 2.500000e+00
         vertex 1.450000e+00 -3.000000e-01 2.500000e+00
         vertex 1.450000e+00 2.205815e-24 2.000000e-01
      endloop
   endfacet
   facet normal 1.000000e+00 0.000000e+00 0.000000e+00
      outer loop
         vertex 1.450000e+00 2.205815e-24 2.000000e-01
         vertex 1.450000e+00 -3.000000e-01 2.500000e+00
         vertex 1.450000e+00 -3.000000e-01 2.000000e-01
      endloop
   endfacet
   facet normal -0.000000e+00 1.000000e+00 0.000000e+00
      outer loop
         vertex 0.000000e+00 0.000000e+00 2.500000e+00
         vertex 1.450000e+00 0.000000e+00 2.500000e+00
         vertex 0.000000e+00 0.000000e+00 2.000000e-01
      endloop
   endfacet
   facet normal 0.000000e+00 1.000000e+00 0.000000e+00
      outer loop
         vertex 0.000000e+00 0.000000e+00 2.000000e-01
         vertex 1.450000e+00 0.000000e+00 2.500000e+00
         vertex 1.450000e+00 0.000000e+00 2.000000e-01
      endloop
   endfacet
   facet normal 1.000000e+00 0.000000e+00 0.000000e+00
      outer loop
         vertex 0.000000e+00 8.080000e+00 2.500000e+00
         vertex 0.000000e+00 0.000000e+00 2.500000e+00
         vertex 0.000000e+00 8.080000e+00 2.000000e-01
      endloop
   endfacet
   facet normal 1.000000e+00 0.000000e+00 0.000000e+00
      outer loop
         vertex 0.000000e+00 8.080000e+00 2.000000e-01
         vertex 0.000000e+00 0.000000e+00 2.500000e+00
         vertex 0.000000e+00 0.000000e+00 2.000000e-01
      endloop
   endfacet
   facet normal -0.000000e+00 -1.000000e+00 -0.000000e+00
      outer loop
         vertex 4.480000e+00 8.080000e+00 2.500000e+00
         vertex 0.000000e+00 8.080000e+00 2.500000e+00
         vertex 4.480000e+00 8.080000e+00 2.000000e-01
      endloop
   endfacet
   facet normal 0.000000e+00 -1.000000e+00 0.000000e+00
      outer loop
         vertex 4.480000e+00 8.080000e+00 2.000000e-01
         vertex 0.000000e+00 8.080000e+00 2.500000e+00
         vertex 0.000000e+00 8.080000e+00 2.000000e-01
      endloop
   endfacet
   facet normal -1.000000e+00 0.000000e+00 0.000000e+00
      outer loop
         vertex 4.480000e+00 0.000000e+00 2.500000e+00
         vertex 4.480000e+00 8.080000e+00 2.500000e+00
         vertex 4.480000e+00 0.000000e+00 2.000000e-01
      endloop
   endfacet
   facet normal -1.000000e+00 0.000000e+00 0.000000e+00
      outer loop
         vertex 4.480000e+00 0.000000e+00 2.000000e-01
         vertex 4.480000e+00 8.080000e+00 2.500000e+00
         vertex 4.480000e+00 8.080000e+00 2.000000e-01
      endloop
   endfacet
   facet normal -0.000000e+00 1.000000e+00 0.000000e+00
      outer loop
         vertex 1.930000e+00 0.000000e+00 2.500000e+00
         vertex 4.480000e+00 0.000000e+00 2.500000e+00
         vertex 1.930000e+00 0.000000e+00 2.000000e-01
      endloop
   endfacet
   facet normal 0.000000e+00 1.000000e+00 0.000000e+00
      outer loop
         vertex 1.930000e+00 0.000000e+00 2.000000e-01
         vertex 4.480000e+00 0.000000e+00 2.500000e+00
         vertex 4.480000e+00 0.000000e+00 2.000000e-01
      endloop
   endfacet
   facet normal -1.000000e+00 0.000000e+00 0.000000e+00
      outer loop
         vertex 1.930000e+00 -3.000000e-01 2.500000e+00
         vertex 1.930000e+00 8.823265e-25 2.500000e+00
         vertex 1.930000e+00 -3.000000e-01 2.000000e-01
      endloop
   endfacet
   facet normal -1.000000e+00 0.000000e+00 0.000000e+00
      outer loop
         vertex 1.930000e+00 -3.000000e-01 2.000000e-01
         vertex 1.930000e+00 8.823265e-25 2.500000e+00
         vertex 1.930000e+00 8.823265e-25 2.000000e-01
      endloop
   endfacet
   facet normal -0.000000e+00 -1.000000e+00 -0.000000e+00
      outer loop
         vertex 4.780000e+00 -3.000000e-01 2.500000e+00
         vertex 1.930000e+00 -3.000000e-01 2.500000e+00
         vertex 4.780000e+00 -3.000000e-01 2.000000e-01
      endloop
   endfacet
   facet normal 0.000000e+00 -1.000000e+00 0.000000e+00
      outer loop
         vertex 4.780000e+00 -3.000000e-01 2.000000e-01
         vertex 1.930000e+00 -3.000000e-01 2.500000e+00
         vertex 1.930000e+00 -3.000000e-01 2.000000e-01
      endloop
   endfacet
   facet normal 1.000000e+00 0.000000e+00 0.000000e+00
      outer loop
         vertex 4.780000e+00 8.380000e+00 2.500000e+00
         vertex 4.780000e+00 -3.000000e-01 2.500000e+00
         vertex 4.780000e+00 8.380000e+00 2.000000e-01
      endloop
   endfacet
   facet normal 1.000000e+00 0.000000e+00 0.000000e+00
      outer loop
         vertex 4.780000e+00 8.380000e+00 2.000000e-01
         vertex 4.780000e+00 -3.000000e-01 2.500000e+00
         vertex 4.780000e+00 -3.000000e-01 2.000000e-01
      endloop
   endfacet
   facet normal 0.000000e+00 0.000000e+00 1.000000e+00
      outer loop
         vertex 1.930000e+00 8.823265e-25 2.500000e+00
         vertex 1.930000e+00 -3.000000e-01 2.500000e+00
         vertex 4.480000e+00 0.000000e+00 2.500000e+00
      endloop
   endfacet
   facet normal 0.000000e+00 0.000000e+00 1.000000e+00
      outer loop
         vertex 4.480000e+00 0.000000e+00 2.500000e+00
         vertex 1.930000e+00 -3.000000e-01 2.500000e+00
         vertex 4.780000e+00 -3.000000e-01 2.500000e+00
      endloop
   endfacet
   facet normal -0.000000e+00 0.000000e+00 1.000000e+00
      outer loop
         vertex 4.480000e+00 0.000000e+00 2.500000e+00
         vertex 4.780000e+00 -3.000000e-01 2.500000e+00
         vertex 4.480000e+00 8.080000e+00 2.500000e+00
      endloop
   endfacet
   facet normal -0.000000e+00 0.000000e+00 1.000000e+00
      outer loop
         vertex 4.480000e+00 8.080000e+00 2.500000e+00
         vertex 4.780000e+00 -3.000000e-01 2.500000e+00
         vertex 4.780000e+00 8.380000e+00 2.500000e+00
      endloop
   endfacet
   facet normal 0.000000e+00 -0.000000e+00 1.000000e+00
      outer loop
         vertex 4.480000e+00 8.080000e+00 2.500000e+00
         vertex 4.780000e+00 8.380000e+00 2.500000e+00
         vertex 0.000000e+00 8.080000e+00 2.500000e+00
      endloop
   endfacet
   facet normal 0.000000e+00 -0.000000e+00 1.000000e+00
      outer loop
         vertex 0.000000e+00 8.080000e+00 2.500000e+00
         vertex 4.780000e+00 8.380000e+00 2.500000e+00
         vertex -3.000000e-01 8.380000e+00 2.500000e+00
      endloop
   endfacet
   facet normal 0.000000e+00 0.000000e+00 1.000000e+00
      outer loop
         vertex 0.000000e+00 8.080000e+00 2.500000e+00
         vertex -3.000000e-01 8.380000e+00 2.500000e+00
         vertex 0.000000e+00 0.000000e+00 2.500000e+00
      endloop
   endfacet
   facet normal 0.000000e+00 0.000000e+00 1.000000e+00
      outer loop
         vertex 0.000000e+00 0.000000e+00 2.500000e+00
         vertex -3.000000e-01 8.380000e+00 2.500000e+00
         vertex -3.000000e-01 -3.000000e-01 2.500000e+00
      endloop
   endfacet
   facet normal -0.000000e+00 0.000000e+00 1.000000e+00
      outer loop
         vertex 0.000000e+00 0.000000e+00 2.500000e+00
         vertex -3.000000e-01 -3.000000e-01 2.500000e+00
         vertex 1.450000e+00 2.205815e-24 2.500000e+00
      endloop
   endfacet
   facet normal 0.000000e+00 0.000000e+00 1.000000e+00
      outer loop
         vertex 1.450000e+00 2.205815e-24 2.500000e+00
         vertex -3.000000e-01 -3.000000e-01 2.500000e+00
         vertex 1.450000e+00 -3.000000e-01 2.500000e+00
      endloop
   endfacet
   facet normal 0.000000e+00 -0.000000e+00 -1.000000e+00
      outer loop
         vertex 1.450000e+00 2.205815e-24 2.000000e-01
         vertex 1.450000e+00 -3.000000e-01 2.000000e-01
         vertex 0.000000e+00 0.000000e+00 2.000000e-01
      endloop
   endfacet
   facet normal 0.000000e+00 -0.000000e+00 -1.000000e+00
      outer loop
         vertex 0.000000e+00 0.000000e+00 2.000000e-01
         vertex 1.450000e+00 -3.000000e-01 2.000000e-01
         vertex -3.000000e-01 -3.000000e-01 2.000000e-01
      endloop
   endfacet
   facet normal -0.000000e+00 0.000000e+00 -1.000000e+00
      outer loop
         vertex 0.000000e+00 0.000000e+00 2.000000e-01
         vertex -3.000000e-01 -3.000000e-01 2.000000e-01
         vertex 0.000000e+00 8.080000e+00 2.000000e-01
      endloop
   endfacet
   facet normal -0.000000e+00 0.000000e+00 -1.000000e+00
      outer loop
         vertex 0.000000e+00 8.080000e+00 2.000000e-01
         vertex -3.000000e-01 -3.000000e-01 2.000000e-01
         vertex -3.000000e-01 8.380000e+00 2.000000e-01
      endloop
   endfacet
   facet normal 0.000000e+00 0.000000e+00 -1.000000e+00
      outer loop
         vertex 0.000000e+00 8.080000e+00 2.000000e-01
         vertex -3.000000e-01 8.380000e+00 2.000000e-01
         vertex 4.480000e+00 8.080000e+00 2.000000e-01
      endloop
   endfacet
   facet normal 0.000000e+00 0.000000e+00 -1.000000e+00
      outer loop
         vertex 4.480000e+00 8.080000e+00 2.000000e-01
         vertex -3.000000e-01 8.380000e+00 2.000000e-01
         vertex 4.780000e+00 8.380000e+00 2.000000e-01
      endloop
   endfacet
   facet normal 0.000000e+00 0.000000e+00 -1.000000e+00
      outer loop
         vertex 4.480000e+00 8.080000e+00 2.000000e-01
         vertex 4.780000e+00 8.380000e+00 2.000000e-01
         vertex 4.480000e+00 0.000000e+00 2.000000e-01
      endloop
   endfacet
   facet normal 0.000000e+00 0.000000e+00 -1.000000e+00
      outer loop
         vertex 4.480000e+00 0.000000e+00 2.000000e-01
         vertex 4.780000e+00 8.380000e+00 2.000000e-01
         vertex 4.780000e+00 -3.000000e-01 2.000000e-01
      endloop
   endfacet
   facet normal -0.000000e+00 -0.000000e+00 -1.000000e+00
      outer loop
         vertex 4.480000e+00 0.000000e+00 2.000000e-01
         vertex 4.780000e+00 -3.000000e-01 2.000000e-01
         vertex 1.930000e+00 8.823265e-25 2.000000e-01
      endloop
   endfacet
   facet normal 0.000000e+00 0.000000e+00 -1.000000e+00
      outer loop
         vertex 1.930000e+00 8.823265e-25 2.000000e-01
         vertex 4.780000e+00 -3.000000e-01 2.000000e-01
         vertex 1.930000e+00 -3.000000e-01 2.000000e-01
      endloop
   endfacet
endsolid